<svg aria-hidden="true" style="position: absolute; width: 0; height: 0; overflow: hidden;" version="1.1" xmlns="http://www.w3.org/2000/svg" xmlns:xlink="http://www.w3.org/1999/xlink">
<defs>
<symbol id="icon-browser" viewBox="0 0 20 20">
<path d="M18 2h-16c-1.1 0-2 0.9-2 2v12c0 1.1 0.9 2 2 2h16c1.1 0 2-0.9 2-2v-12c0-1.1-0.9-2-2-2zM4.5 3.75c0.414 0 0.75 0.336 0.75 0.75s-0.336 0.75-0.75 0.75c-0.414 0-0.75-0.336-0.75-0.75s0.336-0.75 0.75-0.75zM1.75 4.5c0-0.414 0.336-0.75 0.75-0.75s0.75 0.336 0.75 0.75c0 0.414-0.336 0.75-0.75 0.75s-0.75-0.336-0.75-0.75zM18 16h-16v-9h16v9zM18 5h-12v-1h12.019l-0.019 1z"></path>
</symbol>
<symbol id="icon-image-inverted" viewBox="0 0 20 20">
<path d="M18 3h-16c-0.553 0-1 0.447-1 1v12c0 0.552 0.447 1 1 1h16c0.553 0 1-0.448 1-1v-12c0-0.552-0.447-1-1-1zM13.25 6.5c0.69 0 1.25 0.56 1.25 1.25s-0.56 1.25-1.25 1.25-1.25-0.56-1.25-1.25 0.56-1.25 1.25-1.25zM4 14l3.314-7.619 3.769 6.102 3.231-1.605 1.686 3.122h-12z"></path>
</symbol>
<symbol id="icon-time-slot" viewBox="0 0 20 20">
<path d="M10 0.4c-5.302 0-9.6 4.298-9.6 9.6s4.298 9.6 9.6 9.6c5.301 0 9.6-4.298 9.6-9.601 0-5.301-4.299-9.599-9.6-9.599zM10 17.599c-4.197 0-7.6-3.402-7.6-7.6 0-4.197 3.402-7.6 7.6-7.6v0 7.601l6.792-3.396c0.513 1.023 0.808 2.173 0.808 3.396 0 4.197-3.403 7.599-7.6 7.599z"></path>
</symbol>
</defs>
</svg>
